<?xml version="1.0" encoding="utf-8"?>
<!-- Generator: Adobe Illustrator 22.0.1, SVG Export Plug-In . SVG Version: 6.00 Build 0)  -->
<svg version="1.1" id="cloud" xmlns="http://www.w3.org/2000/svg" xmlns:xlink="http://www.w3.org/1999/xlink" x="0px" y="0px"
	 viewBox="0 0 28.9 20.9" style="enable-background:new 0 0 28.9 20.9;" xml:space="preserve">
<path d="M24.9,6.9c-0.4-3.1-3-5.4-6.1-5.4c-1.5,0-2.9,0.6-3.9,1.5c-1-1.3-2.6-2.1-4.3-2.1c-2.6,0-4.8,1.9-5.4,4.3
	C2.3,5.3,0,7.7,0,10.6c0,3,2.5,5.5,5.5,5.5c0.6,0,1.3-0.1,1.8-0.3c1,1.4,2.6,2.3,4.5,2.3c1.1,0,2.2-0.3,3-0.9c1,1,2.3,1.6,3.8,1.6
	c2.2,0,4.1-1.3,5-3.2c0.3,0.1,0.5,0.1,0.8,0.1c2.4,0,4.4-2,4.4-4.4C28.9,9,27.1,7.1,24.9,6.9z"/>
</svg>
